<svg id="Component_3_1" data-name="Component 3 – 1" xmlns="http://www.w3.org/2000/svg" xmlns:xlink="http://www.w3.org/1999/xlink" width="229.16" height="123.055" viewBox="0 0 229.16 123.055">
  <defs>
    <linearGradient id="linear-gradient" x1="0.002" y1="0.5" x2="1.366" y2="0.5" gradientUnits="objectBoundingBox">
      <stop offset="0" stop-color="#6cc9f3"/>
      <stop offset="0.16" stop-color="#63c2ed"/>
      <stop offset="0.42" stop-color="#4ab0de"/>
      <stop offset="0.747" stop-color="#2392c6"/>
      <stop offset="1" stop-color="#0078b1"/>
    </linearGradient>
    <linearGradient id="linear-gradient-2" x1="1" y1="0.5" x2="-0.978" y2="0.5" xlink:href="#linear-gradient"/>
    <linearGradient id="linear-gradient-3" x1="0.998" y1="0.5" x2="-0.49" y2="0.5" xlink:href="#linear-gradient"/>
  </defs>
  <text id="Saudi" transform="translate(154.137 119.055)" fill="#1d3867" font-size="16.761" font-family="Helvetica" letter-spacing="-0.017em"><tspan x="-41.729" y="0">Saudi</tspan></text>
  <g id="Group_521" data-name="Group 521" transform="translate(-57.173 -28.175)">
    <g id="Group_520" data-name="Group 520">
      <g id="Group_519" data-name="Group 519">
        <g id="Group_518" data-name="Group 518">
          <path id="Path_1145" data-name="Path 1145" d="M259.47,72.222l-4,4-14.853,0-8.009,8.009,14.849,0-4.006,4.009H265.8a34.034,34.034,0,1,1,.005-52.057l-8.01,8.006H235.436l-8.01,8.013h22.361l-4,4h14.848L244.62,72.222Z" fill="url(#linear-gradient)"/>
          <path id="Path_1146" data-name="Path 1146" d="M272.65,44.189H257.8l-8.01,8.013h14.85Z" fill="url(#linear-gradient-2)"/>
          <path id="Path_1147" data-name="Path 1147" d="M277.831,76.225h-22.36l-8.008,8.009h22.361Z" fill="url(#linear-gradient-3)"/>
          <path id="Path_1148" data-name="Path 1148" d="M286.333,60.208h-29.7l-8.013,8.012h29.706Z" fill="#96c123"/>
          <path id="Path_1149" data-name="Path 1149" d="M255.471,76.225H240.618l-8.008,8.009h14.853Z" fill="#0073b2"/>
          <path id="Path_1150" data-name="Path 1150" d="M257.8,44.189H235.436l-8.01,8.013h22.361Z" fill="#0073b2"/>
        </g>
      </g>
    </g>
  </g>
  <g id="Group_522" data-name="Group 522" transform="translate(-57.173 -28.175)">
    <path id="Path_1151" data-name="Path 1151" d="M122.155,104.975c-1.722-1.731-4.387-2.192-7.122-2.192-.881,0-1.712.029-2.486.079V96.243h-4.4v25.432a54.255,54.255,0,0,0,6.891.559c2.735,0,5.4-.464,7.122-2.195,1.613-1.622,1.918-4.377,1.918-7.529S123.768,106.6,122.155,104.975Zm-3.372,12.6c-.675.679-1.852,1.084-3.881,1.11a20.152,20.152,0,0,1-2.355-.152V106.442c3.536-.33,5.334.1,6.236,1,.77.771.939,1.867.939,5.058S119.553,116.8,118.783,117.573Z" fill="#1d3867"/>
    <path id="Path_1152" data-name="Path 1152" d="M193.9,112.51c0,3.152.307,5.907,1.922,7.529,1.716,1.731,4.386,2.195,7.119,2.195a54.123,54.123,0,0,0,6.889-.559V96.243h-4.4v6.619c-.778-.05-1.61-.079-2.492-.079-2.733,0-5.4.461-7.119,2.192C194.211,106.6,193.9,109.349,193.9,112.51Zm4.35-.011c0-3.191.176-4.287.945-5.058.9-.9,2.7-1.329,6.238-1v12.089a20.22,20.22,0,0,1-2.359.152c-2.03-.026-3.2-.431-3.879-1.11C198.43,116.8,198.254,115.689,198.254,112.5Z" fill="#1d3867"/>
    <path id="Path_1153" data-name="Path 1153" d="M96.035,102.6c-7.015,0-8.221,4.907-8.221,9.852s1.206,9.851,8.221,9.851,8.224-4.906,8.224-9.851S103.053,102.6,96.035,102.6Zm0,16.079c-2.625,0-3.822-1.371-3.822-6.227s1.2-6.224,3.822-6.224,3.828,1.372,3.828,6.224S98.663,118.681,96.035,118.681Z" fill="#1d3867"/>
    <path id="Path_1154" data-name="Path 1154" d="M83.515,96.243h-4.4V122h4.4Z" fill="#1d3867"/>
    <path id="Path_1155" data-name="Path 1155" d="M184.525,118.362c-3.791,0-5.588-1.35-5.859-4.013H189.1c1.192,0,1.534-.982,1.534-1.895,0-4.945-1.2-9.852-8.218-9.852s-8.225,4.907-8.225,9.852c0,2.971.646,5.824,2.566,7.688,1.745,1.681,4.134,2.078,6.8,2.078a27.244,27.244,0,0,0,6.284-.842v-3.955A17.646,17.646,0,0,1,184.525,118.362Zm-2.109-12.132c2.291,0,3.684,1.049,3.954,4.555h-7.726C178.912,107.279,180.117,106.23,182.416,106.23Z" fill="#1d3867"/>
    <path id="Path_1156" data-name="Path 1156" d="M137.6,118.362c-3.793,0-5.587-1.35-5.858-4.013h10.434c1.2,0,1.53-.982,1.53-1.895,0-4.945-1.2-9.852-8.218-9.852s-8.22,4.907-8.22,9.852c0,2.971.645,5.824,2.568,7.688,1.743,1.681,4.127,2.078,6.8,2.078a27.272,27.272,0,0,0,6.289-.842v-3.955A17.664,17.664,0,0,1,137.6,118.362Zm-2.112-12.132c2.3,0,3.688,1.049,3.957,4.555h-7.726C131.987,107.279,133.193,106.23,135.488,106.23Z" fill="#1d3867"/>
    <path id="Path_1157" data-name="Path 1157" d="M73.265,101.441V97.486a27,27,0,0,0-6.291-.842c-2.669,0-5.055.392-6.8,2.081-1.858,1.792-3,5-3,10.6,0,11.269,4.3,12.937,9.874,12.937q1.421,0,2.674-.087c3.143-.194,4.715-.347,4.715-2.4V108.72H69.852v9.666c-.9.058-1.759.084-2.616.084-1.989,0-3.2-.452-3.831-1.126-1.059-1.137-1.659-2.063-1.659-8.019A27.605,27.605,0,0,1,62.1,103.9c.48-2.265,2.293-3.406,5.8-3.406a17.8,17.8,0,0,1,5.36.947" fill="#1d3867"/>
    <path id="Path_1158" data-name="Path 1158" d="M167.624,96.668c-2.007,0-2.652-.054-3.608,1.947-.71,1.489-3.655,7.827-5.111,10.771-1.463-2.944-4.4-9.282-5.115-10.771-.956-2-1.6-1.947-3.6-1.947H147.9V122h4.579V104.7l5.447,11.016c.314.634.614.85.957.85s.652-.216.96-.85l5.49-11.05V122h4.584V96.668Z" fill="#1d3867"/>
  </g>
</svg>
